<?xml version="1.0" encoding="UTF-8" standalone="no"?>
<svg
   xmlns:dc="http://purl.org/dc/elements/1.1/"
   xmlns:cc="http://creativecommons.org/ns#"
   xmlns:rdf="http://www.w3.org/1999/02/22-rdf-syntax-ns#"
   xmlns:svg="http://www.w3.org/2000/svg"
   xmlns="http://www.w3.org/2000/svg"
   xmlns:xlink="http://www.w3.org/1999/xlink"
   xmlns:sodipodi="http://sodipodi.sourceforge.net/DTD/sodipodi-0.dtd"
   xmlns:inkscape="http://www.inkscape.org/namespaces/inkscape"
   width="1500"
   height="768"
   id="svg2"
   version="1.1"
   inkscape:version="0.48.2 r9819">
  <sodipodi:namedview id="base" pagecolor="#ffffff" bordercolor="#666666" borderopacity="1.0" inkscape:pageopacity="0.0" inkscape:pageshadow="2" inkscape:zoom="0.52703025" inkscape:cx="519.51567" inkscape:cy="438.03413" inkscape:document-units="px" inkscape:current-layer="layer1" showgrid="false" inkscape:window-width="1024" inkscape:window-height="712" inkscape:window-x="-4" inkscape:window-y="-4" inkscape:window-maximized="1" />
  <style>
path {
  fill:none;
  stroke-opacity:0.05882353;
  stroke:#ffffff;
  stroke-linecap:round;
  stroke-miterlimit:4;
  stroke-dasharray:none;
}
.marcado { stroke-opacity:0.15;}
.cir1 { stroke-width: 1.26704443000000010;}
.cir2 { stroke-width: 1.40782714000000000;}
.cir3 { stroke-width: 1.58380556000000010;}
.cir4 { stroke-width: 1.81006347999999990;}
.cir5 { stroke-width: 2.11174059000000010;}
.cir6 { stroke-width: 2.53408884999999980;}
.cir7 { stroke-width: 3.16761112000000010;}
.cir8 { stroke-width: 4.22348118000000030;}
.cir9 { stroke-width: 6.33522224000000020;}
.cir10 { stroke-width: 12.67044449000000000;}
  </style>
  <g id="layer1" transform="translate(0,-284.36218)">
    <g id="g4313" transform="matrix(1.793722,0,0,1.793722,-871.11297,-744.42512)">
      <path class="cir1" id="path3831-9" d="m 598.03506,313.62106 c 0,9.40315 -7.62275,17.02591 -17.0259,17.02591 -9.40315,0 -17.02591,-7.62276 -17.02591,-17.02591 0,-5.57344 2.72785,-10.794 7.30315,-13.97675" transform="matrix(12.627813,0,0,12.627813,-6093.0295,-2884.3942)" />
      <path class="cir2" id="path4065" d="m 598.03506,313.62106 c 0,9.40315 -7.62275,17.02591 -17.0259,17.02591 -9.40315,0 -17.02591,-7.62276 -17.02591,-17.02591 0,-9.40315 7.62276,-17.02591 17.02591,-17.02591 9.40315,0 17.0259,7.62276 17.0259,17.02591 z" transform="matrix(11.365032,0,0,11.365032,-5359.3422,-2488.3595)" />
      <path class="cir3" id="path4067" d="m 569.62164,300.96381 c 6.9904,-6.28915 17.75561,-5.72067 24.04477,1.26974 2.06211,2.29204 3.46315,5.10102 4.05356,8.12711" transform="matrix(10.10225,0,0,10.10225,-4625.6544,-2092.3244)" />
      <path class="cir4 marcado" id="path4069" d="m 598.03506,313.62106 c 0,9.40315 -7.62275,17.02591 -17.0259,17.02591 -9.40315,0 -17.02591,-7.62276 -17.02591,-17.02591 0,-9.40315 7.62276,-17.02591 17.02591,-17.02591 9.40315,0 17.0259,7.62276 17.0259,17.02591 z" transform="matrix(8.8394691,0,0,8.8394691,-3891.967,-1696.2898)" />
      <path class="cir5" id="path4071" d="m 598.03506,313.62106 c 0,9.40315 -7.62275,17.02591 -17.0259,17.02591 -9.40315,0 -17.02591,-7.62276 -17.02591,-17.02591 0,-9.40315 7.62276,-17.02591 17.02591,-17.02591 9.40315,0 17.0259,7.62276 17.0259,17.02591 z" transform="matrix(7.5766878,0,0,7.5766878,-3158.2795,-1300.2549)" />
      <path class="cir6" id="path4073" d="m 598.03506,313.62106 c 0,9.40315 -7.62275,17.02591 -17.0259,17.02591 -9.40315,0 -17.02591,-7.62276 -17.02591,-17.02591 0,-9.40315 7.62276,-17.02591 17.02591,-17.02591 0.75562,0 1.5104,0.0503 2.25933,0.15058" transform="matrix(6.3139065,0,0,6.3139065,-2424.592,-904.22006)" />
      <path class="cir7" id="path4075" d="m 598.03506,313.62106 c 0,9.40315 -7.62275,17.02591 -17.0259,17.02591 -9.40315,0 -17.02591,-7.62276 -17.02591,-17.02591 0,-9.40315 7.62276,-17.02591 17.02591,-17.02591 9.40315,0 17.0259,7.62276 17.0259,17.02591 z" transform="matrix(5.0511252,0,0,5.0511252,-1690.9045,-508.18528)" />
      <path class="cir8" id="path4077" d="m 598.03506,313.62106 c 0,9.40315 -7.62275,17.02591 -17.0259,17.02591 -9.40315,0 -17.02591,-7.62276 -17.02591,-17.02591 0,-9.40315 7.62276,-17.02591 17.02591,-17.02591 9.40315,0 17.0259,7.62276 17.0259,17.02591 z" transform="matrix(3.7883439,0,0,3.7883439,-957.21705,-112.15046)" />
      <path class="cir9" id="path4079" d="m 598.03506,313.62106 c 0,9.40315 -7.62275,17.02591 -17.0259,17.02591 -9.40315,0 -17.02591,-7.62276 -17.02591,-17.02591 0,-9.40315 7.62276,-17.02591 17.02591,-17.02591 9.40315,0 17.0259,7.62276 17.0259,17.02591 z" transform="matrix(2.5255626,0,0,2.5255626,-223.52958,283.88435)" />
      <path class="cir10" id="path3256" d="m 598.03506,313.62106 c 0,9.40315 -7.62275,17.02591 -17.0259,17.02591 -9.40315,0 -17.02591,-7.62276 -17.02591,-17.02591 0,-9.40315 7.62276,-17.02591 17.02591,-17.02591 9.40315,0 17.0259,7.62276 17.0259,17.02591 z" transform="matrix(1.2627813,0,0,1.2627813,510.15792,679.91917)" />
    </g>
    <g id="g4162" transform="translate(32.200358,-34.883721)">
      <path class="cir1" id="path3831-9-0" transform="matrix(2.574368,-12.362617,12.362617,2.574368,-5131.776,7508.9554)" d="m 563.99767,314.32172 c -0.38696,-9.39518 6.91564,-17.32518 16.31083,-17.71214 9.39518,-0.38697 17.32518,6.91564 17.71214,16.31082 0.14327,3.47848 -0.78325,6.91727 -2.65468,9.85292" />
      <path class="cir2" id="path4065-4" transform="matrix(2.3169312,-11.126355,11.126355,2.3169312,-4594.4853,6871.4138)" d="m 598.03506,313.62106 c 0,9.40315 -7.62275,17.02591 -17.0259,17.02591 -9.40315,0 -17.02591,-7.62276 -17.02591,-17.02591 0,-9.40315 7.62276,-17.02591 17.02591,-17.02591 9.40315,0 17.0259,7.62276 17.0259,17.02591 z" />
      <path class="cir3 marcado" id="path4067-9" transform="matrix(2.0594943,-9.890093,9.890093,2.0594943,-4057.1941,6233.8717)" d="m 597.62296,309.89776 c 2.05633,9.17555 -3.71495,18.28078 -12.8905,20.33711 -9.17555,2.05633 -18.28079,-3.71495 -20.33711,-12.8905 -1.2673,-5.65484 0.42872,-11.566 4.50138,-15.68871" />
      <path class="cir4" id="path4069-4" transform="matrix(1.8020576,-8.6538317,8.6538317,1.8020576,-3519.9036,5596.3301)" d="m 598.03506,313.62106 c 0,9.40315 -7.62275,17.02591 -17.0259,17.02591 -9.40315,0 -17.02591,-7.62276 -17.02591,-17.02591 0,-9.40315 7.62276,-17.02591 17.02591,-17.02591 9.40315,0 17.0259,7.62276 17.0259,17.02591 z" />
      <path class="cir5" id="path4071-6" transform="matrix(1.5446208,-7.41757,7.41757,1.5446208,-2982.6126,4958.7884)" d="m 598.03506,313.62106 c 0,9.40315 -7.62275,17.02591 -17.0259,17.02591 -9.40315,0 -17.02591,-7.62276 -17.02591,-17.02591 0,-9.40315 7.62276,-17.02591 17.02591,-17.02591 9.40315,0 17.0259,7.62276 17.0259,17.02591 z" />
      <path class="cir6" id="path4073-0" transform="matrix(1.287184,-6.1813083,6.1813083,1.287184,-2445.3218,4321.2466)" d="m 593.21648,325.48962 c -6.55482,6.74193 -17.33397,6.8936 -24.07589,0.33877 -6.74192,-6.55482 -6.89359,-17.33397 -0.33876,-24.07589 3.61478,-3.71795 8.72689,-5.58589 13.88713,-5.07428" />
      <path class="cir7" id="path4075-3" transform="matrix(1.0297472,-4.9450467,4.9450467,1.0297472,-1908.031,3683.7049)" d="m 598.03506,313.62106 c 0,9.40315 -7.62275,17.02591 -17.0259,17.02591 -9.40315,0 -17.02591,-7.62276 -17.02591,-17.02591 0,-9.40315 7.62276,-17.02591 17.02591,-17.02591 9.40315,0 17.0259,7.62276 17.0259,17.02591 z" />
      <path class="cir8" id="path4077-6" transform="matrix(0.77231039,-3.708785,3.708785,0.77231039,-1370.7402,3046.1631)" d="m 598.03506,313.62106 c 0,9.40315 -7.62275,17.02591 -17.0259,17.02591 -9.40315,0 -17.02591,-7.62276 -17.02591,-17.02591 0,-9.40315 7.62276,-17.02591 17.02591,-17.02591 9.40315,0 17.0259,7.62276 17.0259,17.02591 z" />
      <path class="cir9" id="path4079-2" transform="matrix(0.51487359,-2.4725233,2.4725233,0.51487359,-833.44935,2408.6214)" d="m 598.03506,313.62106 c 0,9.40315 -7.62275,17.02591 -17.0259,17.02591 -9.40315,0 -17.02591,-7.62276 -17.02591,-17.02591 0,-9.40315 7.62276,-17.02591 17.02591,-17.02591 9.40315,0 17.0259,7.62276 17.0259,17.02591 z" />
      <path class="cir10" id="path3831-4-2-4" transform="matrix(0.2574368,-1.2362617,1.2362617,0.2574368,-296.15851,1771.0797)" d="m 598.03506,313.62106 c 0,9.40315 -7.62275,17.02591 -17.0259,17.02591 -9.40315,0 -17.02591,-7.62276 -17.02591,-17.02591 0,-9.40315 7.62276,-17.02591 17.02591,-17.02591 9.40315,0 17.0259,7.62276 17.0259,17.02591 z" />
    </g>
    <g id="g4232">
      <path class="cir1" id="path3831-9-8" transform="matrix(16.319082,25.352246,-25.352246,16.319082,-609.99534,-19760.366)" d="m 563.99767,314.32172 c -0.38696,-9.39518 6.91564,-17.32518 16.31083,-17.71214 9.39518,-0.38697 17.32518,6.91564 17.71214,16.31082 0.38697,9.39519 -6.91564,17.32519 -16.31083,17.71215 -0.31721,0.0131 -0.63473,0.0173 -0.95218,0.0126" />
      <path class="cir2" id="path4065-8" transform="matrix(14.687174,22.817022,-22.817022,14.687174,-456.94162,-17775.577)" d="m 598.03506,313.62106 c 0,9.40315 -7.62275,17.02591 -17.0259,17.02591 -9.40315,0 -17.02591,-7.62276 -17.02591,-17.02591 0,-9.40315 7.62276,-17.02591 17.02591,-17.02591 9.40315,0 17.0259,7.62276 17.0259,17.02591 z" />
      <path class="cir3 marcado" id="path4067-1" transform="matrix(13.055265,20.281796,-20.281796,13.055265,-303.88792,-15790.786)" d="m 577.4839,330.27802 c -9.19938,-1.94694 -15.07864,-10.98283 -13.1317,-20.18221 1.94694,-9.19938 10.98283,-15.07865 20.18221,-13.1317 9.19938,1.94694 15.07864,10.98282 13.1317,20.18221 -0.43867,2.07275 -1.26036,4.04541 -2.42284,5.81667" />
      <path class="cir4" id="path4069-2" transform="matrix(11.423357,17.746573,-17.746573,11.423357,-150.834,-13805.997)" d="m 598.03506,313.62106 c 0,9.40315 -7.62275,17.02591 -17.0259,17.02591 -9.40315,0 -17.02591,-7.62276 -17.02591,-17.02591 0,-9.40315 7.62276,-17.02591 17.02591,-17.02591 9.40315,0 17.0259,7.62276 17.0259,17.02591 z" />
      <path class="cir5" id="path4071-1" transform="matrix(9.7914491,15.211348,-15.211348,9.7914491,2.2195796,-11821.208)" d="m 598.03506,313.62106 c 0,9.40315 -7.62275,17.02591 -17.0259,17.02591 -9.40315,0 -17.02591,-7.62276 -17.02591,-17.02591 0,-9.40315 7.62276,-17.02591 17.02591,-17.02591 9.40315,0 17.0259,7.62276 17.0259,17.02591 z" />
      <path class="cir6" id="path4073-4" transform="matrix(8.1595409,12.676123,-12.676123,8.1595409,155.27336,-9836.4183)" d="m 595.33758,322.81769 c -5.07916,7.91337 -15.61168,10.21095 -23.52505,5.13179 -7.91337,-5.07915 -10.21095,-15.61168 -5.1318,-23.52504 3.45644,-5.38516 9.64048,-8.37755 16.00823,-7.74622" />
      <path class="cir7" id="path4075-9" transform="matrix(6.5276327,10.140899,-10.140899,6.5276327,308.32718,-7851.6288)" d="m 586.20051,329.83622 c -8.95539,2.86711 -18.53941,-2.06842 -21.40652,-11.0238 -2.8671,-8.95539 2.06843,-18.53941 11.02381,-21.40652 8.95539,-2.8671 18.53941,2.06842 21.40652,11.02381 0.27571,0.86119 0.48238,1.74297 0.61804,2.63698" />
      <path class="cir8" id="path4077-8" transform="matrix(4.8957246,7.6056739,-7.6056739,4.8957246,461.38092,-5866.8393)" d="m 598.03506,313.62106 c 0,9.40315 -7.62275,17.02591 -17.0259,17.02591 -9.40315,0 -17.02591,-7.62276 -17.02591,-17.02591 0,-9.40315 7.62276,-17.02591 17.02591,-17.02591 9.40315,0 17.0259,7.62276 17.0259,17.02591 z" />
      <path class="cir9" id="path4079-24" transform="matrix(3.2638164,5.0704493,-5.0704493,3.2638164,614.43464,-3882.0498)" d="m 598.03506,313.62106 c 0,9.40315 -7.62275,17.02591 -17.0259,17.02591 -9.40315,0 -17.02591,-7.62276 -17.02591,-17.02591 0,-9.40315 7.62276,-17.02591 17.02591,-17.02591 9.40315,0 17.0259,7.62276 17.0259,17.02591 z" />
      <path class="cir10" id="path3831-4-2-5" transform="matrix(1.6319082,2.5352246,-2.5352246,1.6319082,767.48838,-1897.2603)" d="m 598.03506,313.62106 c 0,9.40315 -7.62275,17.02591 -17.0259,17.02591 -9.40315,0 -17.02591,-7.62276 -17.02591,-17.02591 0,-9.40315 7.62276,-17.02591 17.02591,-17.02591 9.40315,0 17.0259,7.62276 17.0259,17.02591 z" />
    </g>
    <g id="g4536">
      <path class="cir1" id="path3831-9-8-7" transform="matrix(6.8956123,10.712567,-10.712567,6.8956123,-67.408479,-7786.2557)" d="m 571.67633,327.86115 a 17.025909,17.025909 0 1 1 23.74462,-5.17468" />
      <path class="cir2" id="path4065-8-8" transform="matrix(6.2060511,9.6413105,-9.6413105,6.2060511,-2.7357783,-6947.5851)" d="m 598.03506,313.62106 a 17.025909,17.025909 0 1 1 -34.05181,0 17.025909,17.025909 0 1 1 34.05181,0 z" />
      <path class="cir3 marcado" id="path4067-1-1" transform="matrix(5.5164896,8.5700532,-8.5700532,5.5164896,61.936914,-6108.9135)" d="m 588.62388,298.39288 a 17.025909,17.025909 0 1 1 -24.29355,18.64849" />
      <path class="cir4" id="path4069-2-6" transform="matrix(4.8269284,7.4987972,-7.4987972,4.8269284,126.6097,-5270.2429)" d="m 598.03506,313.62106 a 17.025909,17.025909 0 1 1 -34.05181,0 17.025909,17.025909 0 1 1 34.05181,0 z" />
      <path class="cir5" id="path4071-1-0" transform="matrix(4.1373673,6.4275403,-6.4275403,4.1373673,191.28234,-4431.5722)" d="m 598.03506,313.62106 a 17.025909,17.025909 0 1 1 -34.05181,0 17.025909,17.025909 0 1 1 34.05181,0 z" />
      <path class="cir6" id="path4073-4-9" transform="matrix(3.4478061,5.3562835,-5.3562835,3.4478061,255.95507,-3592.9013)" d="m 597.7309,310.41718 a 17.025909,17.025909 0 1 1 -29.65222,-7.87242" />
      <path class="cir7" id="path4075-9-5" transform="matrix(2.7582449,4.285027,-4.285027,2.7582449,320.62781,-2754.2304)" d="m 598.03506,313.62106 a 17.025909,17.025909 0 1 1 -34.05181,0 17.025909,17.025909 0 1 1 34.05181,0 z" />
      <path class="cir8" id="path4077-8-8" transform="matrix(2.0686837,3.2137701,-3.2137701,2.0686837,385.30052,-1915.5595)" d="m 598.03506,313.62106 a 17.025909,17.025909 0 1 1 -34.05181,0 17.025909,17.025909 0 1 1 34.05181,0 z" />
      <path class="cir9" id="path4079-24-9" transform="matrix(1.3791225,2.1425134,-2.1425134,1.3791225,449.97322,-1076.8886)" d="m 598.03506,313.62106 a 17.025909,17.025909 0 1 1 -34.05181,0 17.025909,17.025909 0 1 1 34.05181,0 z" />
      <path class="cir10" id="path3831-4-2-5-0" transform="matrix(0.68956123,1.0712567,-1.0712567,0.68956123,514.64593,-238.21774)" d="m 598.03506,313.62106 a 17.025909,17.025909 0 1 1 -34.05181,0 17.025909,17.025909 0 1 1 34.05181,0 z" />
    </g>
    <use x="0" y="0" xlink:href="#g4313" id="use4377" transform="translate(-1500,4.1283567e-5)" width="1500" height="768" />
  </g>
</svg>